<svg width="184" height="58" viewBox="0 0 184 58" fill="none" xmlns="http://www.w3.org/2000/svg">
<g filter="url(#filter0_g_19_226)">
<mask id="path-1-outside-1_19_226" maskUnits="userSpaceOnUse" x="2.75171" y="2.88184" width="178" height="51" fill="black">
<rect fill="white" x="2.75171" y="2.88184" width="178" height="51"/>
<path d="M18.3444 51.8818L5.02625 5.33638H15.7763L23.4808 37.6773H23.8672L32.3672 5.33638H41.5717L50.049 37.7455H50.4581L58.1626 5.33638H68.9126L55.5944 51.8818H46.0035L37.1399 21.45H36.7763L27.9353 51.8818H18.3444ZM73.9969 52.5637C70.406 52.5637 67.3151 51.8364 64.7242 50.3818C62.1485 48.9121 60.1636 46.8364 58.7697 44.1546C57.3757 41.4576 56.6788 38.2682 56.6788 34.5864C56.6788 30.9955 57.3757 27.844 58.7697 25.1318C60.1636 22.4197 62.1257 20.3061 64.656 18.7909C67.2015 17.2758 70.1863 16.5182 73.6106 16.5182C75.9136 16.5182 78.0575 16.8894 80.0424 17.6318C82.0424 18.3591 83.7848 19.4576 85.2697 20.9273C86.7697 22.397 87.9363 24.2455 88.7697 26.4727C89.603 28.6849 90.0197 31.2758 90.0197 34.2455V36.9046H60.5424V30.9046H80.906C80.906 29.5106 80.603 28.2758 79.9969 27.2C79.3909 26.1243 78.55 25.2833 77.4742 24.6773C76.4136 24.0561 75.1788 23.7455 73.7697 23.7455C72.3 23.7455 70.9969 24.0864 69.8606 24.7682C68.7394 25.4349 67.8606 26.3364 67.2242 27.4727C66.5878 28.594 66.2621 29.844 66.2469 31.2227V36.9273C66.2469 38.6546 66.5651 40.147 67.2015 41.4046C67.853 42.6621 68.7697 43.6318 69.9515 44.3137C71.1333 44.9955 72.5348 45.3364 74.156 45.3364C75.2318 45.3364 76.2166 45.1849 77.1106 44.8818C78.0045 44.5788 78.7697 44.1243 79.406 43.5182C80.0424 42.9121 80.5272 42.1697 80.8606 41.2909L89.8151 41.8818C89.3606 44.0334 88.4288 45.9121 87.0197 47.5182C85.6257 49.1091 83.8227 50.3515 81.6106 51.2455C79.4136 52.1243 76.8757 52.5637 73.9969 52.5637ZM84.3597 51.8818V5.33638H94.0415V22.8364H94.3369C94.7612 21.897 95.3748 20.9424 96.1778 19.9727C96.996 18.9879 98.0566 18.1697 99.3597 17.5182C100.678 16.8515 102.314 16.5182 104.269 16.5182C106.814 16.5182 109.163 17.1849 111.314 18.5182C113.466 19.8364 115.185 21.8288 116.473 24.4955C117.761 27.147 118.405 30.4727 118.405 34.4727C118.405 38.3667 117.776 41.6546 116.519 44.3364C115.276 47.003 113.579 49.0258 111.428 50.4046C109.291 51.7682 106.898 52.45 104.246 52.45C102.367 52.45 100.769 52.1394 99.4506 51.5182C98.1475 50.897 97.0794 50.1167 96.246 49.1773C95.4127 48.2227 94.7763 47.2606 94.3369 46.2909H93.9051V51.8818H84.3597ZM93.8369 34.4273C93.8369 36.503 94.1248 38.3137 94.7006 39.8591C95.2763 41.4046 96.1097 42.6091 97.2006 43.4727C98.2915 44.3212 99.6172 44.7455 101.178 44.7455C102.754 44.7455 104.087 44.3137 105.178 43.45C106.269 42.5712 107.095 41.3591 107.655 39.8137C108.231 38.253 108.519 36.4576 108.519 34.4273C108.519 32.4121 108.238 30.6394 107.678 29.1091C107.117 27.5788 106.291 26.3818 105.201 25.5182C104.11 24.6546 102.769 24.2227 101.178 24.2227C99.6021 24.2227 98.2688 24.6394 97.1778 25.4727C96.1021 26.3061 95.2763 27.4879 94.7006 29.0182C94.1248 30.5485 93.8369 32.3515 93.8369 34.4273ZM143.751 20.3818C143.433 19.2758 142.986 18.2985 142.41 17.45C141.834 16.5864 141.13 15.8591 140.296 15.2682C139.478 14.6621 138.539 14.2 137.478 13.8818C136.433 13.5637 135.274 13.4046 134.001 13.4046C131.622 13.4046 129.531 13.9955 127.728 15.1773C125.94 16.3591 124.546 18.0788 123.546 20.3364C122.546 22.5788 122.046 25.3212 122.046 28.5637C122.046 31.8061 122.539 34.5637 123.524 36.8364C124.508 39.1091 125.902 40.844 127.705 42.0409C129.508 43.2227 131.637 43.8137 134.092 43.8137C136.319 43.8137 138.221 43.4197 139.796 42.6318C141.387 41.8288 142.599 40.7 143.433 39.2455C144.281 37.7909 144.705 36.0712 144.705 34.0864L146.705 34.3818H134.705V26.9727H154.183V32.8364C154.183 36.9273 153.319 40.4424 151.592 43.3818C149.864 46.3061 147.486 48.5637 144.455 50.1546C141.425 51.7303 137.955 52.5182 134.046 52.5182C129.683 52.5182 125.849 51.5561 122.546 49.6318C119.243 47.6924 116.667 44.9424 114.819 41.3818C112.986 37.8061 112.069 33.5637 112.069 28.6546C112.069 24.8818 112.614 21.5182 113.705 18.5637C114.811 15.594 116.357 13.0788 118.342 11.0182C120.327 8.95759 122.637 7.38941 125.274 6.31365C127.91 5.23789 130.766 4.70002 133.842 4.70002C136.478 4.70002 138.933 5.08638 141.205 5.85911C143.478 6.61668 145.493 7.69244 147.251 9.08638C149.024 10.4803 150.471 12.1394 151.592 14.0637C152.713 15.9727 153.433 18.0788 153.751 20.3818H143.751ZM149.415 51.8818V5.33638H159.256V43.7682H179.21V51.8818H149.415Z"/>
</mask>
<path d="M18.3444 51.8818L5.02625 5.33638H15.7763L23.4808 37.6773H23.8672L32.3672 5.33638H41.5717L50.049 37.7455H50.4581L58.1626 5.33638H68.9126L55.5944 51.8818H46.0035L37.1399 21.45H36.7763L27.9353 51.8818H18.3444ZM73.9969 52.5637C70.406 52.5637 67.3151 51.8364 64.7242 50.3818C62.1485 48.9121 60.1636 46.8364 58.7697 44.1546C57.3757 41.4576 56.6788 38.2682 56.6788 34.5864C56.6788 30.9955 57.3757 27.844 58.7697 25.1318C60.1636 22.4197 62.1257 20.3061 64.656 18.7909C67.2015 17.2758 70.1863 16.5182 73.6106 16.5182C75.9136 16.5182 78.0575 16.8894 80.0424 17.6318C82.0424 18.3591 83.7848 19.4576 85.2697 20.9273C86.7697 22.397 87.9363 24.2455 88.7697 26.4727C89.603 28.6849 90.0197 31.2758 90.0197 34.2455V36.9046H60.5424V30.9046H80.906C80.906 29.5106 80.603 28.2758 79.9969 27.2C79.3909 26.1243 78.55 25.2833 77.4742 24.6773C76.4136 24.0561 75.1788 23.7455 73.7697 23.7455C72.3 23.7455 70.9969 24.0864 69.8606 24.7682C68.7394 25.4349 67.8606 26.3364 67.2242 27.4727C66.5878 28.594 66.2621 29.844 66.2469 31.2227V36.9273C66.2469 38.6546 66.5651 40.147 67.2015 41.4046C67.853 42.6621 68.7697 43.6318 69.9515 44.3137C71.1333 44.9955 72.5348 45.3364 74.156 45.3364C75.2318 45.3364 76.2166 45.1849 77.1106 44.8818C78.0045 44.5788 78.7697 44.1243 79.406 43.5182C80.0424 42.9121 80.5272 42.1697 80.8606 41.2909L89.8151 41.8818C89.3606 44.0334 88.4288 45.9121 87.0197 47.5182C85.6257 49.1091 83.8227 50.3515 81.6106 51.2455C79.4136 52.1243 76.8757 52.5637 73.9969 52.5637ZM84.3597 51.8818V5.33638H94.0415V22.8364H94.3369C94.7612 21.897 95.3748 20.9424 96.1778 19.9727C96.996 18.9879 98.0566 18.1697 99.3597 17.5182C100.678 16.8515 102.314 16.5182 104.269 16.5182C106.814 16.5182 109.163 17.1849 111.314 18.5182C113.466 19.8364 115.185 21.8288 116.473 24.4955C117.761 27.147 118.405 30.4727 118.405 34.4727C118.405 38.3667 117.776 41.6546 116.519 44.3364C115.276 47.003 113.579 49.0258 111.428 50.4046C109.291 51.7682 106.898 52.45 104.246 52.45C102.367 52.45 100.769 52.1394 99.4506 51.5182C98.1475 50.897 97.0794 50.1167 96.246 49.1773C95.4127 48.2227 94.7763 47.2606 94.3369 46.2909H93.9051V51.8818H84.3597ZM93.8369 34.4273C93.8369 36.503 94.1248 38.3137 94.7006 39.8591C95.2763 41.4046 96.1097 42.6091 97.2006 43.4727C98.2915 44.3212 99.6172 44.7455 101.178 44.7455C102.754 44.7455 104.087 44.3137 105.178 43.45C106.269 42.5712 107.095 41.3591 107.655 39.8137C108.231 38.253 108.519 36.4576 108.519 34.4273C108.519 32.4121 108.238 30.6394 107.678 29.1091C107.117 27.5788 106.291 26.3818 105.201 25.5182C104.11 24.6546 102.769 24.2227 101.178 24.2227C99.6021 24.2227 98.2688 24.6394 97.1778 25.4727C96.1021 26.3061 95.2763 27.4879 94.7006 29.0182C94.1248 30.5485 93.8369 32.3515 93.8369 34.4273ZM143.751 20.3818C143.433 19.2758 142.986 18.2985 142.41 17.45C141.834 16.5864 141.13 15.8591 140.296 15.2682C139.478 14.6621 138.539 14.2 137.478 13.8818C136.433 13.5637 135.274 13.4046 134.001 13.4046C131.622 13.4046 129.531 13.9955 127.728 15.1773C125.94 16.3591 124.546 18.0788 123.546 20.3364C122.546 22.5788 122.046 25.3212 122.046 28.5637C122.046 31.8061 122.539 34.5637 123.524 36.8364C124.508 39.1091 125.902 40.844 127.705 42.0409C129.508 43.2227 131.637 43.8137 134.092 43.8137C136.319 43.8137 138.221 43.4197 139.796 42.6318C141.387 41.8288 142.599 40.7 143.433 39.2455C144.281 37.7909 144.705 36.0712 144.705 34.0864L146.705 34.3818H134.705V26.9727H154.183V32.8364C154.183 36.9273 153.319 40.4424 151.592 43.3818C149.864 46.3061 147.486 48.5637 144.455 50.1546C141.425 51.7303 137.955 52.5182 134.046 52.5182C129.683 52.5182 125.849 51.5561 122.546 49.6318C119.243 47.6924 116.667 44.9424 114.819 41.3818C112.986 37.8061 112.069 33.5637 112.069 28.6546C112.069 24.8818 112.614 21.5182 113.705 18.5637C114.811 15.594 116.357 13.0788 118.342 11.0182C120.327 8.95759 122.637 7.38941 125.274 6.31365C127.91 5.23789 130.766 4.70002 133.842 4.70002C136.478 4.70002 138.933 5.08638 141.205 5.85911C143.478 6.61668 145.493 7.69244 147.251 9.08638C149.024 10.4803 150.471 12.1394 151.592 14.0637C152.713 15.9727 153.433 18.0788 153.751 20.3818H143.751ZM149.415 51.8818V5.33638H159.256V43.7682H179.21V51.8818H149.415Z" fill="#94A3B8"/>
<path d="M18.3444 51.8818L17.383 52.1569L17.5904 52.8818H18.3444V51.8818ZM5.02625 5.33638V4.33638H3.69999L4.06484 5.61147L5.02625 5.33638ZM15.7763 5.33638L16.749 5.10464L16.566 4.33638H15.7763V5.33638ZM23.4808 37.6773L22.508 37.909L22.691 38.6773H23.4808V37.6773ZM23.8672 37.6773V38.6773H24.6383L24.8343 37.9315L23.8672 37.6773ZM32.3672 5.33638V4.33638H31.596L31.4 5.08219L32.3672 5.33638ZM41.5717 5.33638L42.5392 5.08332L42.3438 4.33638H41.5717V5.33638ZM50.049 37.7455L49.0815 37.9985L49.2769 38.7455H50.049V37.7455ZM50.4581 37.7455V38.7455H51.2482L51.431 37.9768L50.4581 37.7455ZM58.1626 5.33638V4.33638H57.3725L57.1897 5.1051L58.1626 5.33638ZM68.9126 5.33638L69.874 5.61147L70.2389 4.33638H68.9126V5.33638ZM55.5944 51.8818V52.8818H56.3484L56.5559 52.1569L55.5944 51.8818ZM46.0035 51.8818L45.0434 52.1615L45.2532 52.8818H46.0035V51.8818ZM37.1399 21.45L38.1 21.1704L37.8902 20.45H37.1399V21.45ZM36.7763 21.45V20.45H36.0254L35.816 21.171L36.7763 21.45ZM27.9353 51.8818V52.8818H28.6862L28.8956 52.1608L27.9353 51.8818ZM18.3444 51.8818L19.3059 51.6067L5.98767 5.06129L5.02625 5.33638L4.06484 5.61147L17.383 52.1569L18.3444 51.8818ZM5.02625 5.33638V6.33638H15.7763V5.33638V4.33638H5.02625V5.33638ZM15.7763 5.33638L14.8035 5.56812L22.508 37.909L23.4808 37.6773L24.4536 37.4455L16.749 5.10464L15.7763 5.33638ZM23.4808 37.6773V38.6773H23.8672V37.6773V36.6773H23.4808V37.6773ZM23.8672 37.6773L24.8343 37.9315L33.3343 5.59057L32.3672 5.33638L31.4 5.08219L22.9 37.4231L23.8672 37.6773ZM32.3672 5.33638V6.33638H41.5717V5.33638V4.33638H32.3672V5.33638ZM41.5717 5.33638L40.6043 5.58944L49.0815 37.9985L50.049 37.7455L51.0164 37.4924L42.5392 5.08332L41.5717 5.33638ZM50.049 37.7455V38.7455H50.4581V37.7455V36.7455H50.049V37.7455ZM50.4581 37.7455L51.431 37.9768L59.1355 5.56766L58.1626 5.33638L57.1897 5.1051L49.4852 37.5142L50.4581 37.7455ZM58.1626 5.33638V6.33638H68.9126V5.33638V4.33638H58.1626V5.33638ZM68.9126 5.33638L67.9512 5.06129L54.633 51.6067L55.5944 51.8818L56.5559 52.1569L69.874 5.61147L68.9126 5.33638ZM55.5944 51.8818V50.8818H46.0035V51.8818V52.8818H55.5944V51.8818ZM46.0035 51.8818L46.9636 51.6022L38.1 21.1704L37.1399 21.45L36.1798 21.7297L45.0434 52.1615L46.0035 51.8818ZM37.1399 21.45V20.45H36.7763V21.45V22.45H37.1399V21.45ZM36.7763 21.45L35.816 21.171L26.975 51.6029L27.9353 51.8818L28.8956 52.1608L37.7366 21.729L36.7763 21.45ZM27.9353 51.8818V50.8818H18.3444V51.8818V52.8818H27.9353V51.8818ZM64.7242 50.3818L64.2286 51.2504L64.2347 51.2538L64.7242 50.3818ZM58.7697 44.1546L57.8813 44.6137L57.8824 44.6158L58.7697 44.1546ZM58.7697 25.1318L57.8803 24.6747V24.6747L58.7697 25.1318ZM64.656 18.7909L64.1445 17.9316L64.1423 17.933L64.656 18.7909ZM80.0424 17.6318L79.692 18.5685L79.7006 18.5716L80.0424 17.6318ZM85.2697 20.9273L84.5662 21.638L84.5698 21.6416L85.2697 20.9273ZM88.7697 26.4727L87.8331 26.8232L87.8339 26.8253L88.7697 26.4727ZM90.0197 36.9046V37.9046H91.0197V36.9046H90.0197ZM60.5424 36.9046H59.5424V37.9046H60.5424V36.9046ZM60.5424 30.9046V29.9046H59.5424V30.9046H60.5424ZM80.906 30.9046V31.9046H81.906V30.9046H80.906ZM79.9969 27.2L79.1257 27.6909V27.6909L79.9969 27.2ZM77.4742 24.6773L76.9688 25.5402L76.9761 25.5444L76.9834 25.5485L77.4742 24.6773ZM69.8606 24.7682L70.3717 25.6277L70.3751 25.6257L69.8606 24.7682ZM67.2242 27.4727L68.0939 27.9664L68.0967 27.9613L67.2242 27.4727ZM66.2469 31.2227L65.2469 31.2118V31.2227H66.2469ZM67.2015 41.4046L66.3092 41.8561L66.3136 41.8646L67.2015 41.4046ZM77.1106 44.8818L76.7895 43.9348V43.9348L77.1106 44.8818ZM79.406 43.5182L78.7164 42.7941V42.7941L79.406 43.5182ZM80.8606 41.2909L80.9264 40.2931L80.188 40.2444L79.9256 40.9363L80.8606 41.2909ZM89.8151 41.8818L90.7935 42.0885L91.032 40.96L89.881 40.884L89.8151 41.8818ZM87.0197 47.5182L86.268 46.8587L86.2675 46.8592L87.0197 47.5182ZM81.6106 51.2455L81.982 52.174L81.9852 52.1726L81.6106 51.2455ZM73.9969 52.5637V51.5637C70.5419 51.5637 67.6269 50.8646 65.2137 49.5099L64.7242 50.3818L64.2347 51.2538C67.0034 52.8082 70.2702 53.5637 73.9969 53.5637V52.5637ZM64.7242 50.3818L65.2198 49.5133C62.8144 48.1408 60.964 46.208 59.657 43.6934L58.7697 44.1546L57.8824 44.6158C59.3632 47.4647 61.4825 49.6835 64.2286 51.2504L64.7242 50.3818ZM58.7697 44.1546L59.658 43.6954C58.3515 41.1675 57.6788 38.142 57.6788 34.5864H56.6788H55.6788C55.6788 38.3944 56.4 41.7477 57.8813 44.6137L58.7697 44.1546ZM56.6788 34.5864H57.6788C57.6788 31.1263 58.3497 28.1366 59.6591 25.589L58.7697 25.1318L57.8803 24.6747C56.4018 27.5513 55.6788 30.8646 55.6788 34.5864H56.6788ZM58.7697 25.1318L59.6591 25.589C60.9707 23.037 62.8053 21.0647 65.1698 19.6489L64.656 18.7909L64.1423 17.933C61.4462 19.5474 59.3565 21.8025 57.8803 24.6747L58.7697 25.1318ZM64.656 18.7909L65.1675 19.6502C67.5355 18.2407 70.3379 17.5182 73.6106 17.5182V16.5182V15.5182C70.0348 15.5182 66.8675 16.3108 64.1445 17.9316L64.656 18.7909ZM73.6106 16.5182V17.5182C75.8044 17.5182 77.8286 17.8714 79.692 18.5685L80.0424 17.6318L80.3927 16.6952C78.2865 15.9074 76.0228 15.5182 73.6106 15.5182V16.5182ZM80.0424 17.6318L79.7006 18.5716C81.5676 19.2505 83.1859 20.2718 84.5662 21.638L85.2697 20.9273L85.9731 20.2166C84.3837 18.6434 82.5172 17.4677 80.3841 16.692L80.0424 17.6318ZM85.2697 20.9273L84.5698 21.6416C85.9522 22.996 87.0443 24.7148 87.8331 26.8232L88.7697 26.4727L89.7063 26.1223C88.8284 23.7761 87.5872 21.798 85.9695 20.213L85.2697 20.9273ZM88.7697 26.4727L87.8339 26.8253C88.6154 28.9 89.0197 31.3666 89.0197 34.2455H90.0197H91.0197C91.0197 31.185 90.5906 28.4698 89.7055 26.1202L88.7697 26.4727ZM90.0197 34.2455H89.0197V36.9046H90.0197H91.0197V34.2455H90.0197ZM90.0197 36.9046V35.9046H60.5424V36.9046V37.9046H90.0197V36.9046ZM60.5424 36.9046H61.5424V30.9046H60.5424H59.5424V36.9046H60.5424ZM60.5424 30.9046V31.9046H80.906V30.9046V29.9046H60.5424V30.9046ZM80.906 30.9046H81.906C81.906 29.3612 81.5691 27.9533 80.8682 26.7092L79.9969 27.2L79.1257 27.6909C79.6369 28.5983 79.906 29.66 79.906 30.9046H80.906ZM79.9969 27.2L80.8682 26.7092C80.1725 25.4742 79.2 24.5018 77.965 23.806L77.4742 24.6773L76.9834 25.5485C77.9 26.0649 78.6093 26.7743 79.1257 27.6909L79.9969 27.2ZM77.4742 24.6773L77.9796 23.8144C76.7444 23.0909 75.33 22.7455 73.7697 22.7455V23.7455V24.7455C75.0275 24.7455 76.0828 25.0212 76.9688 25.5402L77.4742 24.6773ZM73.7697 23.7455V22.7455C72.139 22.7455 70.6544 23.1257 69.3461 23.9107L69.8606 24.7682L70.3751 25.6257C71.3395 25.0471 72.4609 24.7455 73.7697 24.7455V23.7455ZM69.8606 24.7682L69.3495 23.9087C68.0776 24.6649 67.074 25.6943 66.3517 26.9841L67.2242 27.4727L68.0967 27.9613C68.6471 26.9785 69.4011 26.2048 70.3717 25.6277L69.8606 24.7682ZM67.2242 27.4727L66.3545 26.9791C65.6288 28.2578 65.2639 29.6758 65.247 31.2118L66.2469 31.2227L67.2469 31.2337C67.2603 30.0121 67.5469 28.9301 68.0939 27.9663L67.2242 27.4727ZM66.2469 31.2227H65.2469V36.9273H66.2469H67.2469V31.2227H66.2469ZM66.2469 36.9273H65.2469C65.2469 38.7766 65.5878 40.4305 66.3092 41.8561L67.2015 41.4046L68.0938 40.9531C67.5424 39.8635 67.2469 38.5325 67.2469 36.9273H66.2469ZM67.2015 41.4046L66.3136 41.8646C67.0495 43.285 68.0979 44.3988 69.4518 45.1798L69.9515 44.3137L70.4512 43.4475C69.4415 42.8649 68.6565 42.0392 68.0894 40.9446L67.2015 41.4046ZM69.9515 44.3137L69.4518 45.1798C70.8119 45.9645 72.3925 46.3364 74.156 46.3364V45.3364V44.3364C72.6771 44.3364 71.4547 44.0264 70.4512 43.4475L69.9515 44.3137ZM74.156 45.3364V46.3364C75.326 46.3364 76.4209 46.1715 77.4316 45.8289L77.1106 44.8818L76.7895 43.9348C76.0123 44.1982 75.1376 44.3364 74.156 44.3364V45.3364ZM77.1106 44.8818L77.4316 45.8289C78.4528 45.4827 79.3465 44.9559 80.0957 44.2423L79.406 43.5182L78.7164 42.7941C78.1929 43.2926 77.5562 43.6749 76.7895 43.9348L77.1106 44.8818ZM79.406 43.5182L80.0957 44.2423C80.8479 43.5259 81.4129 42.6544 81.7956 41.6456L80.8606 41.2909L79.9256 40.9363C79.6416 41.685 79.2369 42.2983 78.7164 42.7941L79.406 43.5182ZM80.8606 41.2909L80.7947 42.2888L89.7493 42.8797L89.8151 41.8818L89.881 40.884L80.9264 40.2931L80.8606 41.2909ZM89.8151 41.8818L88.8367 41.6751C88.4166 43.6639 87.5605 45.3855 86.268 46.8587L87.0197 47.5182L87.7714 48.1777C89.297 46.4388 90.3046 44.4028 90.7935 42.0885L89.8151 41.8818ZM87.0197 47.5182L86.2675 46.8592C84.9892 48.3181 83.3217 49.4754 81.2359 50.3183L81.6106 51.2455L81.9852 52.1726C84.3237 51.2276 86.2622 49.9001 87.7718 48.1772L87.0197 47.5182ZM81.6106 51.2455L81.2392 50.317C79.1829 51.1395 76.7753 51.5637 73.9969 51.5637V52.5637V53.5637C76.9761 53.5637 79.6443 53.109 81.982 52.174L81.6106 51.2455ZM84.3597 51.8818H83.3597V52.8818H84.3597V51.8818ZM84.3597 5.33638V4.33638H83.3597V5.33638H84.3597ZM94.0415 5.33638H95.0415V4.33638H94.0415V5.33638ZM94.0415 22.8364H93.0415V23.8364H94.0415V22.8364ZM94.3369 22.8364V23.8364H94.9826L95.2483 23.248L94.3369 22.8364ZM96.1778 19.9727L95.4087 19.3337L95.4077 19.3349L96.1778 19.9727ZM99.3597 17.5182L99.8069 18.4126L99.811 18.4106L99.3597 17.5182ZM111.314 18.5182L110.787 19.3682L110.792 19.3709L111.314 18.5182ZM116.473 24.4955L115.573 24.9304L115.574 24.9324L116.473 24.4955ZM116.519 44.3364L115.613 43.9118L115.612 43.9141L116.519 44.3364ZM111.428 50.4046L111.966 51.2475L111.967 51.2465L111.428 50.4046ZM99.4506 51.5182L99.0202 52.4209L99.0243 52.4228L99.4506 51.5182ZM96.246 49.1773L95.4927 49.835L95.498 49.8409L96.246 49.1773ZM94.3369 46.2909L95.2478 45.8782L94.9817 45.2909H94.3369V46.2909ZM93.9051 46.2909V45.2909H92.9051V46.2909H93.9051ZM93.9051 51.8818V52.8818H94.9051V51.8818H93.9051ZM97.2006 43.4727L96.5798 44.2568L96.5866 44.2621L97.2006 43.4727ZM105.178 43.45L105.799 44.2341L105.805 44.2288L105.178 43.45ZM107.655 39.8137L106.717 39.4675L106.715 39.4726L107.655 39.8137ZM107.678 29.1091L108.617 28.7651V28.7651L107.678 29.1091ZM105.201 25.5182L105.821 24.7342V24.7342L105.201 25.5182ZM97.1778 25.4727L96.5708 24.6781L96.5654 24.6822L97.1778 25.4727ZM94.7006 29.0182L93.7646 28.6661V28.6661L94.7006 29.0182ZM84.3597 51.8818H85.3597V5.33638H84.3597H83.3597V51.8818H84.3597ZM84.3597 5.33638V6.33638H94.0415V5.33638V4.33638H84.3597V5.33638ZM94.0415 5.33638H93.0415V22.8364H94.0415H95.0415V5.33638H94.0415ZM94.0415 22.8364V23.8364H94.3369V22.8364V21.8364H94.0415V22.8364ZM94.3369 22.8364L95.2483 23.248C95.6287 22.4056 96.1899 21.5261 96.948 20.6106L96.1778 19.9727L95.4077 19.3349C94.5598 20.3588 93.8936 21.3884 93.4256 22.4248L94.3369 22.8364ZM96.1778 19.9727L96.947 20.6118C97.6653 19.7472 98.6107 19.0107 99.8069 18.4126L99.3597 17.5182L98.9125 16.6238C97.5026 17.3287 96.3267 18.2286 95.4087 19.3337L96.1778 19.9727ZM99.3597 17.5182L99.811 18.4106C100.951 17.8337 102.422 17.5182 104.269 17.5182V16.5182V15.5182C102.206 15.5182 100.404 15.8693 98.9084 16.6258L99.3597 17.5182ZM104.269 16.5182V17.5182C106.629 17.5182 108.795 18.1335 110.787 19.3682L111.314 18.5182L111.841 17.6682C109.53 16.2362 106.999 15.5182 104.269 15.5182V16.5182ZM111.314 18.5182L110.792 19.3709C112.753 20.5726 114.354 22.4058 115.573 24.9304L116.473 24.4955L117.374 24.0606C116.017 21.2518 114.178 19.1002 111.837 17.6655L111.314 18.5182ZM116.473 24.4955L115.574 24.9324C116.776 27.4081 117.405 30.5729 117.405 34.4727H118.405H119.405C119.405 30.3726 118.746 26.8858 117.373 24.0586L116.473 24.4955ZM118.405 34.4727H117.405C117.405 38.2641 116.792 41.3978 115.613 43.9118L116.519 44.3364L117.424 44.7609C118.76 41.9114 119.405 38.4693 119.405 34.4727H118.405ZM116.519 44.3364L115.612 43.9141C114.438 46.4355 112.857 48.3008 110.888 49.5626L111.428 50.4046L111.967 51.2465C114.302 49.7507 116.115 47.5706 117.425 44.7587L116.519 44.3364ZM111.428 50.4046L110.89 49.5616C108.922 50.8178 106.716 51.45 104.246 51.45V52.45V53.45C107.079 53.45 109.661 52.7186 111.966 51.2475L111.428 50.4046ZM104.246 52.45V51.45C102.474 51.45 101.029 51.1566 99.8769 50.6136L99.4506 51.5182L99.0243 52.4228C100.509 53.1223 102.261 53.45 104.246 53.45V52.45ZM99.4506 51.5182L99.8809 50.6155C98.6808 50.0434 97.7263 49.3391 96.9941 48.5137L96.246 49.1773L95.498 49.8409C96.4324 50.8943 97.6143 51.7506 99.0202 52.4209L99.4506 51.5182ZM96.246 49.1773L96.9993 48.5196C96.2184 47.6251 95.6401 46.744 95.2478 45.8782L94.3369 46.2909L93.4261 46.7037C93.9126 47.7773 94.607 48.8204 95.4927 49.8349L96.246 49.1773ZM94.3369 46.2909V45.2909H93.9051V46.2909V47.2909H94.3369V46.2909ZM93.9051 46.2909H92.9051V51.8818H93.9051H94.9051V46.2909H93.9051ZM93.9051 51.8818V50.8818H84.3597V51.8818V52.8818H93.9051V51.8818ZM93.8369 34.4273H92.8369C92.8369 36.5927 93.1369 38.5264 93.7635 40.2082L94.7006 39.8591L95.6377 39.51C95.1127 38.1009 94.8369 36.4134 94.8369 34.4273H93.8369ZM94.7006 39.8591L93.7635 40.2082C94.3911 41.8928 95.3212 43.2603 96.5799 44.2568L97.2006 43.4727L97.8213 42.6887C96.8982 41.9579 96.1616 40.9163 95.6377 39.51L94.7006 39.8591ZM97.2006 43.4727L96.5866 44.2621C97.8755 45.2646 99.4251 45.7455 101.178 45.7455V44.7455V43.7455C99.8094 43.7455 98.7074 43.3779 97.8145 42.6834L97.2006 43.4727ZM101.178 44.7455V45.7455C102.947 45.7455 104.508 45.2559 105.799 44.2341L105.178 43.45L104.557 42.666C103.666 43.3714 102.56 43.7455 101.178 43.7455V44.7455ZM105.178 43.45L105.805 44.2288C107.061 43.2168 107.983 41.8417 108.595 40.1547L107.655 39.8137L106.715 39.4726C106.206 40.8765 105.476 41.9257 104.551 42.6713L105.178 43.45ZM107.655 39.8137L108.593 40.1598C109.218 38.4669 109.519 36.5505 109.519 34.4273H108.519H107.519C107.519 36.3647 107.244 38.0392 106.717 39.4675L107.655 39.8137ZM108.519 34.4273H109.519C109.519 32.3215 109.226 30.4282 108.617 28.7651L107.678 29.1091L106.739 29.4531C107.251 30.8506 107.519 32.5028 107.519 34.4273H108.519ZM107.678 29.1091L108.617 28.7651C108.004 27.0917 107.08 25.7307 105.821 24.7342L105.201 25.5182L104.58 26.3022C105.503 27.033 106.231 28.0659 106.739 29.4531L107.678 29.1091ZM105.201 25.5182L105.821 24.7342C104.529 23.7109 102.96 23.2227 101.178 23.2227V24.2227V25.2227C102.577 25.2227 103.691 25.5982 104.58 26.3022L105.201 25.5182ZM101.178 24.2227V23.2227C99.4166 23.2227 97.8612 23.6924 96.5708 24.6781L97.1778 25.4727L97.7849 26.2674C98.6763 25.5865 99.7876 25.2227 101.178 25.2227V24.2227ZM97.1778 25.4727L96.5654 24.6822C95.3163 25.6499 94.3923 26.9976 93.7646 28.6661L94.7006 29.0182L95.6365 29.3703C96.1603 27.9782 96.8879 26.9623 97.7902 26.2633L97.1778 25.4727ZM94.7006 29.0182L93.7646 28.6661C93.1368 30.3347 92.8369 32.2623 92.8369 34.4273H93.8369H94.8369C94.8369 32.4408 95.1128 30.7623 95.6365 29.3703L94.7006 29.0182ZM143.751 20.3818L142.79 20.6583L142.998 21.3818H143.751V20.3818ZM142.41 17.45L141.578 18.0047L141.582 18.0115L142.41 17.45ZM140.296 15.2682L139.701 16.0718L139.709 16.0779L139.718 16.0839L140.296 15.2682ZM137.478 13.8818L137.187 14.8385L137.191 14.8397L137.478 13.8818ZM127.728 15.1773L127.18 14.3409L127.177 14.3431L127.728 15.1773ZM123.546 20.3364L124.46 20.7437L124.461 20.7414L123.546 20.3364ZM127.705 42.0409L127.152 42.8741L127.157 42.8773L127.705 42.0409ZM139.796 42.6318L140.243 43.5263L140.247 43.5246L139.796 42.6318ZM143.433 39.2455L142.569 38.7416L142.565 38.7484L143.433 39.2455ZM144.705 34.0864L144.851 33.0971L143.705 32.9278V34.0864H144.705ZM146.705 34.3818V35.3818L146.851 33.3926L146.705 34.3818ZM134.705 34.3818H133.705V35.3818H134.705V34.3818ZM134.705 26.9727V25.9727H133.705V26.9727H134.705ZM154.183 26.9727H155.183V25.9727H154.183V26.9727ZM151.592 43.3818L152.453 43.8904L152.454 43.8885L151.592 43.3818ZM144.455 50.1546L144.917 51.0418L144.92 51.04L144.455 50.1546ZM122.546 49.6318L122.04 50.4942L122.043 50.4959L122.546 49.6318ZM114.819 41.3818L113.929 41.8381L113.931 41.8426L114.819 41.3818ZM113.705 18.5637L112.768 18.2146L112.767 18.2173L113.705 18.5637ZM118.342 11.0182L119.062 11.7119V11.7119L118.342 11.0182ZM125.274 6.31365L124.896 5.38777V5.38777L125.274 6.31365ZM141.205 5.85911L140.883 6.8059L140.889 6.80779L141.205 5.85911ZM147.251 9.08638L146.629 9.86988L146.633 9.87247L147.251 9.08638ZM151.592 14.0637L150.728 14.5671L150.729 14.5701L151.592 14.0637ZM153.751 20.3818V21.3818H154.898L154.741 20.245L153.751 20.3818ZM143.751 20.3818L144.712 20.1054C144.368 18.9101 143.879 17.8343 143.237 16.8885L142.41 17.45L141.582 18.0115C142.092 18.7627 142.497 19.6414 142.79 20.6583L143.751 20.3818ZM142.41 17.45L143.242 16.8953C142.599 15.9316 141.809 15.1153 140.875 14.4525L140.296 15.2682L139.718 16.0839C140.45 16.6029 141.069 17.2412 141.578 18.0047L142.41 17.45ZM140.296 15.2682L140.891 14.4646C139.973 13.784 138.927 13.2725 137.765 12.924L137.478 13.8818L137.191 14.8397C138.15 15.1275 138.984 15.5403 139.701 16.0718L140.296 15.2682ZM137.478 13.8818L137.769 12.9252C136.615 12.574 135.356 12.4046 134.001 12.4046V13.4046V14.4046C135.191 14.4046 136.25 14.5533 137.187 14.8385L137.478 13.8818ZM134.001 13.4046V12.4046C131.448 12.4046 129.162 13.0414 127.18 14.3409L127.728 15.1773L128.276 16.0136C129.9 14.9495 131.796 14.4046 134.001 14.4046V13.4046ZM127.728 15.1773L127.177 14.3431C125.206 15.6456 123.697 17.5262 122.632 19.9314L123.546 20.3364L124.461 20.7414C125.395 18.6314 126.674 17.0726 128.28 16.0115L127.728 15.1773ZM123.546 20.3364L122.633 19.9291C121.561 22.3338 121.046 25.2237 121.046 28.5637H122.046H123.046C123.046 25.4187 123.532 22.8238 124.46 20.7437L123.546 20.3364ZM122.046 28.5637H121.046C121.046 31.9026 121.553 34.8034 122.606 37.234L123.524 36.8364L124.441 36.4388C123.525 34.3239 123.046 31.7096 123.046 28.5637H122.046ZM123.524 36.8364L122.606 37.234C123.656 39.6577 125.166 41.5554 127.152 42.8741L127.705 42.0409L128.258 41.2078C126.639 40.1326 125.36 38.5605 124.441 36.4388L123.524 36.8364ZM127.705 42.0409L127.157 42.8773C129.145 44.1801 131.47 44.8137 134.092 44.8137V43.8137V42.8137C131.804 42.8137 129.872 42.2654 128.254 41.2046L127.705 42.0409ZM134.092 43.8137V44.8137C136.434 44.8137 138.497 44.3995 140.243 43.5263L139.796 42.6318L139.349 41.7374C137.944 42.44 136.204 42.8137 134.092 42.8137V43.8137ZM139.796 42.6318L140.247 43.5246C142.001 42.6392 143.363 41.3779 144.3 39.7426L143.433 39.2455L142.565 38.7484C141.835 40.0221 140.773 41.0184 139.346 41.7391L139.796 42.6318ZM143.433 39.2455L144.296 39.7493C145.249 38.1165 145.705 36.2164 145.705 34.0864H144.705H143.705C143.705 35.926 143.313 37.4654 142.569 38.7416L143.433 39.2455ZM144.705 34.0864L144.559 35.0756L146.559 35.3711L146.705 34.3818L146.851 33.3926L144.851 33.0971L144.705 34.0864ZM146.705 34.3818V33.3818H134.705V34.3818V35.3818H146.705V34.3818ZM134.705 34.3818H135.705V26.9727H134.705H133.705V34.3818H134.705ZM134.705 26.9727V27.9727H154.183V26.9727V25.9727H134.705V26.9727ZM154.183 26.9727H153.183V32.8364H154.183H155.183V26.9727H154.183ZM154.183 32.8364H153.183C153.183 36.7849 152.35 40.1175 150.73 42.8752L151.592 43.3818L152.454 43.8885C154.288 40.7674 155.183 37.0697 155.183 32.8364H154.183ZM151.592 43.3818L150.731 42.8733C149.099 45.6362 146.858 47.7639 143.991 49.2692L144.455 50.1546L144.92 51.04C148.114 49.3634 150.63 46.9759 152.453 43.8904L151.592 43.3818ZM144.455 50.1546L143.994 49.2673C141.126 50.7589 137.818 51.5182 134.046 51.5182V52.5182V53.5182C138.093 53.5182 141.725 52.7017 144.917 51.0418L144.455 50.1546ZM134.046 52.5182V51.5182C129.834 51.5182 126.179 50.591 123.05 48.7678L122.546 49.6318L122.043 50.4959C125.519 52.5212 129.531 53.5182 134.046 53.5182V52.5182ZM122.546 49.6318L123.053 48.7695C119.92 46.93 117.473 44.3229 115.707 40.9211L114.819 41.3818L113.931 41.8426C115.862 45.562 118.567 48.4548 122.04 50.4942L122.546 49.6318ZM114.819 41.3818L115.709 40.9256C113.962 37.519 113.069 33.4397 113.069 28.6546H112.069H111.069C111.069 33.6876 112.009 38.0932 113.929 41.8381L114.819 41.3818ZM112.069 28.6546H113.069C113.069 24.9773 113.601 21.7342 114.643 18.91L113.705 18.5637L112.767 18.2173C111.628 21.3022 111.069 24.7864 111.069 28.6546H112.069ZM113.705 18.5637L114.642 18.9127C115.706 16.0577 117.182 13.6636 119.062 11.7119L118.342 11.0182L117.621 10.3245C115.532 12.494 113.917 15.1303 112.768 18.2146L113.705 18.5637ZM118.342 11.0182L119.062 11.7119C120.951 9.75124 123.145 8.26237 125.651 7.23954L125.274 6.31365L124.896 5.38777C122.13 6.51645 119.703 8.16394 117.621 10.3245L118.342 11.0182ZM125.274 6.31365L125.651 7.23954C128.158 6.21653 130.885 5.70002 133.842 5.70002V4.70002V3.70002C130.647 3.70002 127.661 4.25926 124.896 5.38777L125.274 6.31365ZM133.842 4.70002V5.70002C136.379 5.70002 138.724 6.07169 140.883 6.80588L141.205 5.85911L141.527 4.91233C139.141 4.10107 136.577 3.70002 133.842 3.70002V4.70002ZM141.205 5.85911L140.889 6.80779C143.059 7.53103 144.969 8.55315 146.629 9.86988L147.251 9.08638L147.872 8.30288C146.017 6.83173 143.897 5.70234 141.522 4.91042L141.205 5.85911ZM147.251 9.08638L146.633 9.87247C148.308 11.1895 149.671 12.7531 150.728 14.5671L151.592 14.0637L152.456 13.5602C151.27 11.5257 149.739 9.77111 147.869 8.30029L147.251 9.08638ZM151.592 14.0637L150.729 14.5701C151.781 16.36 152.459 18.3395 152.76 20.5187L153.751 20.3818L154.741 20.245C154.406 17.8182 153.645 15.5855 152.454 13.5572L151.592 14.0637ZM153.751 20.3818V19.3818H143.751V20.3818V21.3818H153.751V20.3818ZM149.415 51.8818H148.415V52.8818H149.415V51.8818ZM149.415 5.33638V4.33638H148.415V5.33638H149.415ZM159.256 5.33638H160.256V4.33638H159.256V5.33638ZM159.256 43.7682H158.256V44.7682H159.256V43.7682ZM179.21 43.7682H180.21V42.7682H179.21V43.7682ZM179.21 51.8818V52.8818H180.21V51.8818H179.21ZM149.415 51.8818H150.415V5.33638H149.415H148.415V51.8818H149.415ZM149.415 5.33638V6.33638H159.256V5.33638V4.33638H149.415V5.33638ZM159.256 5.33638H158.256V43.7682H159.256H160.256V5.33638H159.256ZM159.256 43.7682V44.7682H179.21V43.7682V42.7682H159.256V43.7682ZM179.21 43.7682H178.21V51.8818H179.21H180.21V43.7682H179.21ZM179.21 51.8818V50.8818H149.415V51.8818V52.8818H179.21V51.8818Z" fill="black" mask="url(#path-1-outside-1_19_226)"/>
</g>
<defs>
<filter id="filter0_g_19_226" x="-4.88758e-05" y="1.21593e-05" width="183.91" height="57.2636" filterUnits="userSpaceOnUse" color-interpolation-filters="sRGB">
<feFlood flood-opacity="0" result="BackgroundImageFix"/>
<feBlend mode="normal" in="SourceGraphic" in2="BackgroundImageFix" result="shape"/>
<feTurbulence type="fractalNoise" baseFrequency="0.99900001287460327 0.99900001287460327" numOctaves="3" seed="4726" />
<feDisplacementMap in="shape" scale="7.4000000953674316" xChannelSelector="R" yChannelSelector="G" result="displacedImage" width="100%" height="100%" />
<feMerge result="effect1_texture_19_226">
<feMergeNode in="displacedImage"/>
</feMerge>
</filter>
</defs>
</svg>
